<?xml version="1.0" encoding="UTF-8" standalone="no"?>
<!DOCTYPE svg PUBLIC "-//W3C//DTD SVG 1.1 Tiny//EN" "http://www.w3.org/Graphics/SVG/1.1/DTD/svg11-tiny.dtd">
<svg xmlns="http://www.w3.org/2000/svg" xmlns:xlink="http://www.w3.org/1999/xlink" baseProfile="tiny" height="96px" version="1.1" viewBox="0 0 96 96" width="96px" x="0px" y="0px">
<g>
<rect fill="none" height="96" width="96"/>
</g>
<g>
<path d="M88.023,49c0,29.633-10.364,40-40,40c-29.635,0-40-10.367-40-40c0-29.634,10.366-40,40-40   C77.659,9,88.023,19.365,88.023,49z" fill-opacity="0.4" stroke-opacity="0.4"/>
</g>
<g>
<g>
<linearGradient gradientTransform="matrix(1 0 0 -1 219.1602 159.2793)" gradientUnits="userSpaceOnUse" id="GRAY_5_1_" x1="-171.1602" x2="-171.1602" y1="151.2695" y2="71.291">
<stop offset="0" style="stop-color:#DDDDDD"/>
<stop offset="0.0364" style="stop-color:#DDDDDD"/>
<stop offset="0.4616" style="stop-color:#BFBFC1"/>
<stop offset="1" style="stop-color:#949499"/>
</linearGradient>
<path d="M8,47.989c0,29.633,10.365,40,40,40c29.637,0,40-10.366,40-40    c0-28.985-9.926-39.53-38.091-39.979h-3.817C17.928,8.459,8,19.004,8,47.989z" fill="url(#GRAY_5_1_)"/>
<linearGradient gradientTransform="matrix(1 0 0 -1 219.1602 159.2793)" gradientUnits="userSpaceOnUse" id="HIGHLIGHT_GRA5_1_" x1="-171.1602" x2="-171.1602" y1="151.2793" y2="71.2793">
<stop offset="0" style="stop-color:#FFFFFF"/>
<stop offset="0.0364" style="stop-color:#FFFFFF"/>
<stop offset="0.3366" style="stop-color:#E1E1E3"/>
<stop offset="0.9874" style="stop-color:#96969A"/>
<stop offset="1" style="stop-color:#949499"/>
</linearGradient>
<path d="M48,8C18.365,8,8,18.365,8,48    c0,29.633,10.365,40,40,40c29.637,0,40-10.367,40-40C88,18.365,77.637,8,48,8z M48,87.023C18.842,87.023,9,77.176,9,48    C9,18.824,18.842,8.977,48,8.977S87,18.824,87,48C87,77.176,77.158,87.023,48,87.023z" fill="url(#HIGHLIGHT_GRA5_1_)" fill-opacity="0.25" stroke-opacity="0.25"/>
</g>
<g display="none">
<linearGradient gradientTransform="matrix(1 0 0 -1 219.1602 159.2793)" gradientUnits="userSpaceOnUse" id="GRAY_4_1_" x1="-171.1602" x2="-171.1602" y1="151.2695" y2="71.291">
<stop offset="0" style="stop-color:#E0E0E0"/>
<stop offset="0.0364" style="stop-color:#E0E0E0"/>
<stop offset="0.3262" style="stop-color:#D6D6D6"/>
<stop offset="0.8148" style="stop-color:#BCBCBC"/>
<stop offset="1" style="stop-color:#B0B0B0"/>
</linearGradient>
<path d="M8,47.989c0,29.633,10.365,40,40,40c29.637,0,40-10.366,40-40    c0-28.985-9.926-39.53-38.091-39.979h-3.817C17.928,8.459,8,19.004,8,47.989z" display="inline" fill="url(#GRAY_4_1_)"/>
<linearGradient gradientTransform="matrix(1 0 0 -1 219.1602 159.2793)" gradientUnits="userSpaceOnUse" id="HIGHLIGHT_GRA4_2_" x1="-171.1602" x2="-171.1602" y1="151.2793" y2="71.2793">
<stop offset="0" style="stop-color:#E8E8E8"/>
<stop offset="0.0364" style="stop-color:#E8E8E8"/>
<stop offset="0.2978" style="stop-color:#DEDEDE"/>
<stop offset="0.7385" style="stop-color:#C4C4C4"/>
<stop offset="1" style="stop-color:#B1B1B1"/>
</linearGradient>
<path d="M48,8C18.365,8,8,18.365,8,48    c0,29.633,10.365,40,40,40c29.637,0,40-10.367,40-40C88,18.365,77.637,8,48,8z M48,87.023C18.842,87.023,9,77.176,9,48    C9,18.824,18.842,8.977,48,8.977S87,18.824,87,48C87,77.176,77.158,87.023,48,87.023z" display="inline" fill="url(#HIGHLIGHT_GRA4_2_)"/>
</g>
<g display="none">
<linearGradient gradientTransform="matrix(1 0 0 -1 219.1602 159.2793)" gradientUnits="userSpaceOnUse" id="GRAY_3_1_" x1="-171.1602" x2="-171.1602" y1="151.2695" y2="71.291">
<stop offset="0" style="stop-color:#E9E9E9"/>
<stop offset="0.0364" style="stop-color:#E9E9E9"/>
<stop offset="0.3218" style="stop-color:#DFDFDF"/>
<stop offset="0.8028" style="stop-color:#C5C5C5"/>
<stop offset="1" style="stop-color:#B8B8B8"/>
</linearGradient>
<path d="M8,47.989c0,29.633,10.365,40,40,40c29.637,0,40-10.366,40-40    c0-28.985-9.926-39.53-38.091-39.979h-3.817C17.928,8.459,8,19.004,8,47.989z" display="inline" fill="url(#GRAY_3_1_)"/>
<linearGradient gradientTransform="matrix(1 0 0 -1 219.1602 159.2793)" gradientUnits="userSpaceOnUse" id="HIGHLIGHT_GRA3_2_" x1="-171.1602" x2="-171.1602" y1="151.2793" y2="71.2793">
<stop offset="0" style="stop-color:#EFEFEF"/>
<stop offset="0.0364" style="stop-color:#EFEFEF"/>
<stop offset="0.3133" style="stop-color:#E5E5E5"/>
<stop offset="0.7799" style="stop-color:#CBCBCB"/>
<stop offset="1" style="stop-color:#BCBCBC"/>
</linearGradient>
<path d="M48,8C18.365,8,8,18.365,8,48    c0,29.633,10.365,40,40,40c29.637,0,40-10.367,40-40C88,18.365,77.637,8,48,8z M48,87.023C18.842,87.023,9,77.176,9,48    C9,18.824,18.842,8.977,48,8.977S87,18.824,87,48C87,77.176,77.158,87.023,48,87.023z" display="inline" fill="url(#HIGHLIGHT_GRA3_2_)"/>
</g>
<g display="none">
<linearGradient gradientTransform="matrix(1 0 0 -1 219.1602 159.2793)" gradientUnits="userSpaceOnUse" id="GRAY_2_1_" x1="-171.1602" x2="-171.1602" y1="151.2695" y2="71.291">
<stop offset="0" style="stop-color:#EEEEEE"/>
<stop offset="0.0364" style="stop-color:#EEEEEE"/>
<stop offset="0.3262" style="stop-color:#E4E4E4"/>
<stop offset="0.8148" style="stop-color:#CACACA"/>
<stop offset="1" style="stop-color:#BEBEBE"/>
</linearGradient>
<path d="M8,47.989c0,29.633,10.365,40,40,40c29.637,0,40-10.366,40-40    c0-28.985-9.926-39.53-38.091-39.979h-3.817C17.928,8.459,8,19.004,8,47.989z" display="inline" fill="url(#GRAY_2_1_)"/>
<linearGradient gradientTransform="matrix(1 0 0 -1 219.1602 159.2793)" gradientUnits="userSpaceOnUse" id="HIGHLIGHT_GRA2_1_" x1="-171.1602" x2="-171.1602" y1="151.2793" y2="71.2793">
<stop offset="0" style="stop-color:#F2F2F2"/>
<stop offset="0.0364" style="stop-color:#F2F2F2"/>
<stop offset="0.3133" style="stop-color:#E8E8E8"/>
<stop offset="0.7799" style="stop-color:#CECECE"/>
<stop offset="1" style="stop-color:#BFBFBF"/>
</linearGradient>
<path d="M48,8C18.365,8,8,18.365,8,48    c0,29.633,10.365,40,40,40c29.637,0,40-10.367,40-40C88,18.365,77.637,8,48,8z M48,87.023C18.842,87.023,9,77.176,9,48    C9,18.824,18.842,8.977,48,8.977S87,18.824,87,48C87,77.176,77.158,87.023,48,87.023z" display="inline" fill="url(#HIGHLIGHT_GRA2_1_)"/>
</g>
<g display="none">
<linearGradient gradientTransform="matrix(1 0 0 -1 219.1602 159.2793)" gradientUnits="userSpaceOnUse" id="GRAY_1_1_" x1="-171.1602" x2="-171.1602" y1="151.2695" y2="71.291">
<stop offset="0" style="stop-color:#F9F9F9"/>
<stop offset="0.0364" style="stop-color:#F9F9F9"/>
<stop offset="0.2102" style="stop-color:#EFEFEF"/>
<stop offset="0.5042" style="stop-color:#D6D6D5"/>
<stop offset="0.8303" style="stop-color:#B2B2B0"/>
<stop offset="1" style="stop-color:#ABABA8"/>
</linearGradient>
<path d="M8,47.989c0,29.633,10.365,40,40,40c29.637,0,40-10.366,40-40    c0-28.985-9.926-39.53-38.091-39.979h-3.817C17.928,8.459,8,19.004,8,47.989z" display="inline" fill="url(#GRAY_1_1_)"/>
<linearGradient gradientTransform="matrix(1 0 0 -1 219.1602 159.2793)" gradientUnits="userSpaceOnUse" id="HIGHLIGHT_GRA1_1_" x1="-171.1602" x2="-171.1602" y1="151.2793" y2="71.2793">
<stop offset="0" style="stop-color:#FCFCFC"/>
<stop offset="0.0364" style="stop-color:#FCFCFC"/>
<stop offset="0.2262" style="stop-color:#F3F3F2"/>
<stop offset="0.5471" style="stop-color:#DAD9D8"/>
<stop offset="0.9576" style="stop-color:#B2B0AD"/>
<stop offset="1" style="stop-color:#ADABA8"/>
</linearGradient>
<path d="M48,8C18.365,8,8,18.365,8,48    c0,29.633,10.365,40,40,40c29.637,0,40-10.367,40-40C88,18.365,77.637,8,48,8z M48,87.023C18.842,87.023,9,77.176,9,48    C9,18.824,18.842,8.977,48,8.977S87,18.824,87,48C87,77.176,77.158,87.023,48,87.023z" display="inline" fill="url(#HIGHLIGHT_GRA1_1_)"/>
</g>
</g>
<g>
<linearGradient gradientTransform="matrix(1 0 0 -1 219.1602 159.2793)" gradientUnits="userSpaceOnUse" id="VIOLET_1_1_" x1="-171.1602" x2="-171.1602" y1="149.5186" y2="69.54">
<stop offset="0" style="stop-color:#7CC040"/>
<stop offset="0.0364" style="stop-color:#7CC040"/>
<stop offset="0.2088" style="stop-color:#77B83D"/>
<stop offset="0.4751" style="stop-color:#69A236"/>
<stop offset="0.8004" style="stop-color:#527F2B"/>
<stop offset="1" style="stop-color:#426623"/>
</linearGradient>
<path d="M8,47.989c0,29.633,10.365,40,40,40c29.637,0,40-10.366,40-40   c0-28.985-9.926-39.53-38.091-39.979h-3.817C17.928,8.459,8,19.004,8,47.989z" fill="url(#VIOLET_1_1_)"/>
<linearGradient gradientTransform="matrix(1 0 0 -1 219.1602 159.2793)" gradientUnits="userSpaceOnUse" id="HIGHLIGHT_VIO1_2_" x1="-171.1602" x2="-171.1602" y1="151.0234" y2="71.7745">
<stop offset="0" style="stop-color:#FFFFFF"/>
<stop offset="0.0364" style="stop-color:#FFFFFF"/>
<stop offset="1" style="stop-color:#4A1F8C"/>
</linearGradient>
<path d="M48,8C18.365,8,8,18.365,8,48   c0,29.632,10.365,40,40,40c29.637,0,40-10.367,40-40C88,18.365,77.637,8,48,8z M48,87.023C18.842,87.023,9,77.176,9,48   C9,18.824,18.842,8.977,48,8.977S87,18.824,87,48C87,77.176,77.158,87.023,48,87.023z" fill="url(#HIGHLIGHT_VIO1_2_)" fill-opacity="0.25" stroke-opacity="0.25"/>
<path d="M48.917,87.979c28.808-0.215,38.997-10.59,39.079-39.641C86.352,69.225,69.744,86.039,48.917,87.979z" fill-opacity="0.05" stroke-opacity="0.05"/>
<path d="M53.814,87.835c23.416-1.267,32.84-10.767,34.047-34.28C84.415,70.686,70.918,84.271,53.814,87.835z" fill-opacity="0.07" stroke-opacity="0.07"/>
<path d="M57.172,87.584c19.85-1.884,28.592-10.675,30.438-30.581C83.436,71.7,71.852,83.34,57.172,87.584z" fill-opacity="0.1" stroke-opacity="0.1"/>
<linearGradient gradientTransform="matrix(1 0 0 -1 219.1602 159.2793)" gradientUnits="userSpaceOnUse" id="SVGID_1_" x1="-151.0527" x2="-151.0527" y1="110.6689" y2="70.4111">
<stop offset="0" style="stop-color:#3FA9F5"/>
<stop offset="0.0364" style="stop-color:#3FA9F5"/>
<stop offset="0.2062" style="stop-color:#3DA4ED"/>
<stop offset="0.4684" style="stop-color:#3898D7"/>
<stop offset="0.7886" style="stop-color:#3084B4"/>
<stop offset="1" style="stop-color:#297499"/>
</linearGradient>
<path d="M87.997,47.729h-0.044c0.001,0.091,0.007,0.18,0.007,0.271c0,21.996-17.776,39.838-39.745,39.954   v0.032C77.684,87.936,88,77.549,88,47.989C88,47.901,87.997,47.817,87.997,47.729z" fill="url(#SVGID_1_)"/>
</g>
<g>
<path d="M29.468,59.979c-3.842,0-6.968,3.125-6.968,6.967c0,3.843,3.126,6.969,6.968,6.969   c3.842,0,6.968-3.126,6.968-6.969C36.436,63.104,33.31,59.979,29.468,59.979z" fill-opacity="0.05" stroke-opacity="0.05"/>
<path d="M29.468,60.479c-3.566,0-6.468,2.901-6.468,6.467c0,3.566,2.901,6.469,6.468,6.469s6.468-2.902,6.468-6.469   C35.936,63.38,33.034,60.479,29.468,60.479z" fill-opacity="0.07" stroke-opacity="0.07"/>
<path d="M29.468,60.979c-3.291,0-5.968,2.677-5.968,5.967c0,3.291,2.677,5.969,5.968,5.969   c3.291,0,5.968-2.678,5.968-5.969C35.436,63.655,32.759,60.979,29.468,60.979z" fill-opacity="0.1" stroke-opacity="0.1"/>
<path d="M29.468,61.479c-3.015,0-5.468,2.452-5.468,5.467c0,3.016,2.453,5.469,5.468,5.469s5.468-2.453,5.468-5.469   C34.936,63.931,32.483,61.479,29.468,61.479z" fill-opacity="0.15" stroke-opacity="0.15"/>
<path d="M29.468,61.979c-2.739,0-4.968,2.229-4.968,4.967c0,2.74,2.229,4.969,4.968,4.969   c2.74,0,4.968-2.229,4.968-4.969C34.436,64.207,32.208,61.979,29.468,61.979z" fill-opacity="0.15" stroke-opacity="0.15"/>
<path d="M25,23.776c-1.378,0-2.5,1.122-2.5,2.5v10.442c0,1.378,1.122,2.5,2.5,2.5   c17.766,0,32.219,14.257,32.219,31.782c0,1.379,1.121,2.5,2.5,2.5h10.444c1.379,0,2.5-1.121,2.5-2.5   C72.663,45.402,50.836,23.776,25,23.776z" fill-opacity="0.05" stroke-opacity="0.05"/>
<path d="M25,24.276c-1.103,0-2,0.897-2,2v10.442c0,1.103,0.897,2,2,2C43.041,38.718,57.719,53.2,57.719,71   c0,1.103,0.897,2,2,2h10.444c1.103,0,2-0.897,2-2C72.163,45.673,50.565,24.276,25,24.276z" fill-opacity="0.07" stroke-opacity="0.07"/>
<path d="M25,24.776c-0.827,0-1.5,0.673-1.5,1.5v10.442c0,0.827,0.673,1.5,1.5,1.5   c18.317,0,33.219,14.706,33.219,32.782c0,0.827,0.673,1.5,1.5,1.5h10.444c0.827,0,1.5-0.673,1.5-1.5   C71.663,45.944,50.294,24.776,25,24.776z" fill-opacity="0.1" stroke-opacity="0.1"/>
<path d="M25,25.276c-0.551,0-1,0.449-1,1v10.442c0,0.551,0.449,1,1,1c18.593,0,33.719,14.93,33.719,33.282   c0,0.552,0.448,1,1,1h10.444c0.552,0,1-0.448,1-1C71.163,46.215,50.023,25.276,25,25.276z" fill-opacity="0.15" stroke-opacity="0.15"/>
<path d="M25,25.776c-0.276,0-0.5,0.224-0.5,0.5v10.442c0,0.276,0.224,0.5,0.5,0.5   c18.868,0,34.219,15.155,34.219,33.782c0,0.276,0.224,0.5,0.5,0.5h10.444c0.276,0,0.5-0.224,0.5-0.5   C70.663,46.486,49.752,25.776,25,25.776z" fill-opacity="0.15" stroke-opacity="0.15"/>
<path d="M25,44.299c-1.378,0-2.5,1.122-2.5,2.5v8.959c0,1.379,1.122,2.5,2.5,2.5   C32.513,58.259,38.178,63.736,38.178,71c0,1.379,1.122,2.5,2.5,2.5h8.96c1.379,0,2.5-1.121,2.5-2.5   C52.139,56.027,40.218,44.299,25,44.299z" fill-opacity="0.05" stroke-opacity="0.05"/>
<path d="M25,44.799c-1.103,0-2,0.897-2,2v8.959c0,1.103,0.897,2,2,2C32.798,57.759,38.678,63.452,38.678,71   c0,1.103,0.897,2,2,2h8.96c1.103,0,2-0.897,2-2C51.639,56.308,39.938,44.799,25,44.799z" fill-opacity="0.07" stroke-opacity="0.07"/>
<path d="M25,45.299c-0.827,0-1.5,0.673-1.5,1.5v8.959c0,0.827,0.673,1.5,1.5,1.5   C33.083,57.259,39.178,63.167,39.178,71c0,0.827,0.673,1.5,1.5,1.5h8.96c0.827,0,1.5-0.673,1.5-1.5   C51.139,56.588,39.657,45.299,25,45.299z" fill-opacity="0.1" stroke-opacity="0.1"/>
<path d="M25,45.799c-0.551,0-1,0.449-1,1v8.959c0,0.552,0.449,1,1,1C33.368,56.759,39.678,62.882,39.678,71   c0,0.552,0.449,1,1,1h8.96c0.552,0,1-0.448,1-1C50.639,56.868,39.377,45.799,25,45.799z" fill-opacity="0.15" stroke-opacity="0.15"/>
<path d="M25,46.299c-0.276,0-0.5,0.224-0.5,0.5v8.959c0,0.276,0.224,0.5,0.5,0.5   C33.653,56.259,40.178,62.597,40.178,71c0,0.276,0.224,0.5,0.5,0.5h8.96c0.276,0,0.5-0.224,0.5-0.5   C50.139,57.148,39.097,46.299,25,46.299z" fill-opacity="0.15" stroke-opacity="0.15"/>
<circle cx="29.468" cy="65.946" fill="#FFFFFF" r="4.468"/>
<path d="M59.719,70h10.444c0-24-20.222-44.724-45.163-44.724v10.442C44.174,35.718,59.719,51,59.719,70z" fill="#FFFFFF"/>
<path d="M40.678,70h8.96c0-14-11.03-24.201-24.639-24.201v8.959C33.659,54.759,40.678,61,40.678,70z" fill="#FFFFFF"/>
</g>
</svg>
