<?xml version="1.0" encoding="UTF-8"?>
<!DOCTYPE svg PUBLIC "-//W3C//DTD SVG 1.1 Tiny//EN" "http://www.w3.org/Graphics/SVG/1.1/DTD/svg11-tiny.dtd">
<svg baseProfile="tiny" height="30px" version="1.1" viewBox="0 0 30 30" width="30px" x="0px" xmlns="http://www.w3.org/2000/svg" xmlns:xlink="http://www.w3.org/1999/xlink" y="0px">
<rect fill="none" height="30" width="30"/>
<path d="M22,30c-2.227,0-4.243-0.914-5.695-2.387C16.118,27.854,15.828,28,15.516,28H5c-1.654,0-3-1.346-3-3V5  c0-1.654,1.346-3,3-3h20c1.654,0,3,1.346,3,3v10.516c0,0.313-0.146,0.603-0.387,0.789C29.086,17.757,30,19.773,30,22  C30,26.411,26.411,30,22,30L22,30z M8,20c-1.104,0-2,0.896-2,2s0.896,2,2,2c1.103,0,2-0.896,2-2S9.103,20,8,20L8,20z M6.334,12.667  C6.149,12.667,6,12.816,6,13v1.333c0,0.184,0.149,0.333,0.334,0.333h0.771c3.069,0,5.959,1.876,7.351,4.669  c0.282-0.797,0.687-1.535,1.192-2.194c-0.121-0.068-0.229-0.162-0.313-0.276c-1.795-2.445-4.547-3.962-7.549-4.162  c-0.05-0.003-0.141-0.02-0.211-0.036L6.334,12.667L6.334,12.667z M7.281,8.022c4.584,0.068,8.969,2.337,11.766,6.1  c0.084,0.113,0.143,0.242,0.174,0.376c0.693-0.258,1.432-0.422,2.199-0.477C18.46,9.263,13.404,6.287,7.822,6.04  C7.785,6.038,7.748,6.034,7.711,6.028C7.686,6.024,7.627,6.011,7.58,6H6.334C6.149,6,6,6.149,6,6.333v1.333C6,7.851,6.149,8,6.334,8  h0.734C7.142,8,7.213,8.008,7.281,8.022L7.281,8.022z" fill-opacity="0.15"/>
<path d="M13.922,19.641c-0.984-2.832-3.729-4.974-6.816-4.974H6.334C5.596,14.667,5,14.07,5,13.334V12  c0-0.736,0.596-1.333,1.334-1.333h1.332c0.066,0,0.125,0.029,0.188,0.038c3.403,0.226,6.386,1.977,8.289,4.568  c0.61-0.625,1.32-1.149,2.103-1.555c-2.554-3.436-6.63-5.698-11.176-5.698V8H6.334C5.596,8,5,7.403,5,6.667V5.334  C5,4.598,5.596,4,6.334,4h1.332c0.072,0,0.133,0.03,0.201,0.041c6.221,0.276,11.609,3.737,14.604,8.783  c1.699,0.097,3.26,0.711,4.529,1.691V4c0-1.104-0.896-2-2-2H5C3.896,2,3,2.896,3,4v20c0,1.105,0.896,2,2,2h10.516  c-1.071-1.385-1.716-3.117-1.716-5C13.8,20.537,13.848,20.084,13.922,19.641z M8,24c-1.655,0-3-1.343-3-3c0-1.656,1.345-3,3-3  s3,1.344,3,3C11,22.657,9.655,24,8,24z M22.001,14L22.001,14c-1.919,0-3.657,0.773-4.922,2.023c-0.009,0.01-0.019,0.018-0.028,0.026  c-0.053,0.054-0.1,0.111-0.15,0.166c-1.176,1.252-1.899,2.931-1.899,4.781c0,0,0,0,0,0.002l0,0c0,3.866,3.135,7,7,7h0.001  c2.581,0,4.829-1.399,6.042-3.479C28.648,23.484,29,22.285,29,21l0,0c0-0.002,0-0.002,0-0.002C29,17.135,25.867,14,22.001,14z   M20.469,23.449c-0.137,0.271-0.438,0.375-0.41,0.873c0.043,0.801-0.602,0.738-0.75,1.281c-0.096,0.353-0.203,0.619-0.263,0.758  c-0.437-0.24-0.836-0.537-1.198-0.873c0.045-0.574-0.113-1.629-0.302-1.758c-0.601-0.408-0.577-0.289-0.63-1.888  c-0.029-0.887,1.475-0.635,1.797-0.282c0.311,0.338,0.26,0.828,1.16,1.207C20.13,22.873,20.604,23.178,20.469,23.449z M19.98,16.51  c-0.318,0.115-0.444,0.094-0.664-0.051c-0.309-0.206-0.979,0.342-0.564,0.535c0.141,0.066,0.395,0.088,0.799,0.227  c0.641,0.221,0.827,0.603,0.456,0.703c-1.858,0.502-0.989,1.083-1.692,1.787c-0.361,0.363-0.338,0.508-0.594,0.594  c-0.313,0.104-0.363-0.353-0.66-0.365c-0.092-0.004-0.781,0.012-1.088,0.015c0.463-2.683,2.672-4.772,5.414-5.047  c0.045,0.024,0.074,0.059,0.063,0.114C21.387,15.341,20.302,16.396,19.98,16.51z M27.6,21.163c-0.387-0.07-0.639-1.078-1.057-0.763  c-0.697,0.526,1.07,1.402,1.07,1.68s-0.373,0.684-0.535,0.813c-0.242,0.195-0.198,0.945-0.198,0.945c0,0.527-0.354,1.158-0.536,1.4  c-0.183,0.242-0.975,1.143-1.436,0.588c-0.344-0.416-0.055-1.268-0.155-2.18c-0.036-0.326,0.026-1.256-1.374-1.426  c-1.242-0.148-1.137-1.056-1.055-1.515c0.111-0.633,0.182-1.006,0.715-1.138c0.301-0.073,1.199-0.188,1.826,0.06  c0.294,0.116,0.768,0.067,0.839-0.321c0.077-0.416-0.201-0.441-0.871-0.632c-0.606-0.17-1.175,0.341-1.667,0.339  c-0.219,0-0.208-0.187-0.205-0.443c0.004-0.26,0.953-0.926,1.053-1.002c0.191-0.146,0.752-0.088,0.766-0.088  c0.619,0.02,0.482-0.4,0.064-0.42c-0.732-0.037-0.68-0.422-0.688-0.537c-0.01-0.115,0.105-0.41,0.671-0.424  c0.13-0.004,0.528-0.021,0.819-0.011c1.478,1.103,2.444,2.847,2.475,4.82C28.01,21.057,27.824,21.205,27.6,21.163z" fill-opacity="0.3"/>
<path d="M13.922,20.641c-0.984-2.832-3.729-4.974-6.816-4.974H6.334C5.596,15.667,5,15.07,5,14.333V13  c0-0.736,0.596-1.333,1.334-1.333h1.332c0.066,0,0.125,0.029,0.188,0.038c3.403,0.226,6.386,1.977,8.289,4.568  c0.61-0.625,1.32-1.149,2.103-1.555c-2.554-3.436-6.63-5.698-11.176-5.698V9H6.334C5.596,9,5,8.403,5,7.667V6.333  C5,5.598,5.596,5,6.334,5h1.332c0.072,0,0.133,0.03,0.201,0.041c6.221,0.276,11.609,3.737,14.604,8.783  c1.699,0.097,3.26,0.711,4.529,1.691V5c0-1.104-0.896-2-2-2H5C3.896,3,3,3.896,3,5v20c0,1.104,0.896,2,2,2h10.516  c-1.071-1.386-1.716-3.117-1.716-5C13.8,21.536,13.848,21.084,13.922,20.641z M8,25c-1.655,0-3-1.344-3-3s1.345-3,3-3s3,1.344,3,3  S9.655,25,8,25z M22.001,15L22.001,15c-1.919,0-3.657,0.773-4.922,2.023c-0.009,0.01-0.019,0.018-0.028,0.025  c-0.053,0.053-0.1,0.111-0.15,0.166c-1.176,1.252-1.899,2.932-1.899,4.782c0,0,0,0,0,0.001V22c0,3.865,3.135,7,7,7h0.001  c2.581,0,4.829-1.4,6.042-3.48C28.648,24.484,29,23.284,29,22v-0.001c0-0.001,0-0.001,0-0.001C29,18.134,25.867,15,22.001,15z   M20.469,24.448c-0.137,0.272-0.438,0.375-0.41,0.874c0.043,0.8-0.602,0.736-0.75,1.281c-0.096,0.352-0.203,0.617-0.263,0.758  c-0.437-0.241-0.836-0.537-1.198-0.873c0.045-0.574-0.113-1.629-0.302-1.758c-0.601-0.408-0.577-0.289-0.63-1.888  c-0.029-0.887,1.475-0.635,1.797-0.282c0.311,0.338,0.26,0.828,1.16,1.207C20.13,23.873,20.604,24.177,20.469,24.448z M19.98,17.509  c-0.318,0.115-0.444,0.095-0.664-0.051c-0.309-0.206-0.979,0.343-0.564,0.536c0.141,0.064,0.395,0.087,0.799,0.227  c0.641,0.221,0.827,0.603,0.456,0.702c-1.858,0.503-0.989,1.083-1.692,1.788c-0.361,0.363-0.338,0.508-0.594,0.594  c-0.313,0.104-0.363-0.354-0.66-0.365c-0.092-0.006-0.781,0.011-1.088,0.015c0.463-2.683,2.672-4.772,5.414-5.047  c0.045,0.024,0.074,0.059,0.063,0.114C21.387,16.34,20.302,17.395,19.98,17.509z M27.6,22.162c-0.387-0.07-0.639-1.078-1.057-0.764  c-0.697,0.527,1.07,1.403,1.07,1.682c0,0.275-0.373,0.684-0.535,0.813c-0.242,0.195-0.198,0.945-0.198,0.945  c0,0.526-0.354,1.158-0.536,1.398c-0.183,0.244-0.975,1.145-1.436,0.589c-0.344-0.415-0.055-1.267-0.155-2.179  c-0.036-0.326,0.026-1.256-1.374-1.426c-1.242-0.148-1.137-1.057-1.055-1.515c0.111-0.633,0.182-1.007,0.715-1.138  c0.301-0.073,1.199-0.188,1.826,0.059c0.294,0.116,0.768,0.068,0.839-0.32c0.077-0.416-0.201-0.442-0.871-0.632  c-0.606-0.17-1.175,0.339-1.667,0.339c-0.219,0-0.208-0.187-0.205-0.445c0.004-0.258,0.953-0.926,1.053-1  c0.191-0.146,0.752-0.088,0.766-0.088c0.619,0.02,0.482-0.4,0.064-0.422c-0.732-0.035-0.68-0.42-0.688-0.535  c-0.01-0.116,0.105-0.412,0.671-0.426c0.13-0.002,0.528-0.02,0.819-0.009c1.478,1.101,2.444,2.847,2.475,4.82  C28.01,22.057,27.824,22.204,27.6,22.162z" fill="#FFFFFF"/>
</svg>
